<svg xmlns="http://www.w3.org/2000/svg" viewBox="0 0 22 20" id="body"><path d="M2.48 9.223l1.147-.42 1.546-2.03a2.217 2.217 0 011.765-.86h6.049c.596 0 1.148.242 1.567.661L17.379 9.4l1.568.11A2.17 2.17 0 0121 11.718v1.39c0 .729-.596 1.325-1.325 1.325h-1.104a2.251 2.251 0 01-2.163 1.655 2.251 2.251 0 01-2.163-1.655h-6.71a2.251 2.251 0 01-2.164 1.655 2.251 2.251 0 01-2.163-1.655h-.905a1.296 1.296 0 01-1.302-1.325v-1.81A2.25 2.25 0 012.48 9.223zm13.95 5.982c.75 0 1.347-.596 1.347-1.346 0-.75-.596-1.347-1.347-1.347-.75 0-1.346.596-1.346 1.347-.022.728.596 1.346 1.346 1.346zm-11.037 0c.75 0 1.347-.596 1.347-1.346 0-.75-.596-1.347-1.347-1.347-.75 0-1.346.596-1.346 1.347 0 .728.596 1.346 1.346 1.346zm-3.465-2.097c0 .243.198.442.441.442h.817a2.236 2.236 0 012.207-1.943 2.22 2.22 0 012.208 1.943h6.6a2.236 2.236 0 012.207-1.943 2.22 2.22 0 012.208 1.943h1.06a.443.443 0 00.44-.442v-1.39c0-.707-.53-1.28-1.235-1.325l-1.722-.11a.389.389 0 01-.287-.133l-2.958-2.98a1.374 1.374 0 00-.95-.397H6.939c-.419 0-.794.199-1.06.53l-1.61 2.14a.48.48 0 01-.2.155l-1.28.464c-.53.177-.882.684-.882 1.236v1.81h.022z"/></svg>