<svg xmlns="http://www.w3.org/2000/svg" viewBox="0 0 20 21" id="color"><path fill-rule="evenodd" clip-rule="evenodd" d="M5.209 3.642c-2.292 0-2.292.174-2.292 2.292v.02c0 .923 0 1.59.226 1.872.22.273.876.4 2.066.4 1.189 0 1.845-.128 2.065-.401.226-.281.226-.948.226-1.871 0-2.138 0-2.312-2.291-2.312zm0 5.834c-1.405 0-2.46-.148-3.039-.867-.503-.624-.503-1.476-.503-2.654l.625-.021h-.625c0-2.392.15-3.542 3.542-3.542 3.39 0 3.541 1.15 3.541 3.542 0 1.198 0 2.05-.503 2.675-.58.72-1.633.867-3.038.867zM14.376 3.642c-2.292 0-2.292.174-2.292 2.292v.02c0 .923 0 1.59.226 1.872.22.273.877.4 2.066.4 1.189 0 1.845-.128 2.066-.401.225-.281.225-.948.225-1.871 0-2.138 0-2.312-2.291-2.312zm0 5.834c-1.405 0-2.46-.148-3.039-.867-.503-.624-.503-1.476-.503-2.654l.625-.021h-.625c0-2.392.15-3.542 3.542-3.542 3.39 0 3.541 1.15 3.541 3.542 0 1.198 0 2.05-.503 2.675-.58.72-1.633.867-3.038.867zM5.209 12.81c-2.292 0-2.292.172-2.292 2.29v.022c0 .922 0 1.589.226 1.87.22.274.876.4 2.066.4 1.189 0 1.845-.127 2.065-.4.226-.281.226-.948.226-1.871 0-2.139 0-2.312-2.291-2.312zm0 5.832c-1.405 0-2.46-.147-3.039-.866-.503-.624-.503-1.476-.503-2.654l.625-.021h-.625c0-2.392.15-3.542 3.542-3.542 3.39 0 3.541 1.15 3.541 3.542 0 1.198 0 2.05-.503 2.675-.58.719-1.633.866-3.038.866zM14.376 12.81c-2.292 0-2.292.172-2.292 2.29v.022c0 .922 0 1.589.226 1.87.22.274.877.4 2.066.4 1.189 0 1.845-.127 2.066-.4.225-.281.225-.948.225-1.871 0-2.139 0-2.312-2.291-2.312zm0 5.832c-1.405 0-2.46-.147-3.039-.866-.503-.624-.503-1.476-.503-2.654l.625-.021h-.625c0-2.392.15-3.542 3.542-3.542 3.39 0 3.541 1.15 3.541 3.542 0 1.198 0 2.05-.503 2.675-.58.719-1.633.866-3.038.866z"/></svg>