<svg xmlns="http://www.w3.org/2000/svg" viewBox="0 0 16 17" id="doc-type"><path fill-rule="evenodd" clip-rule="evenodd" d="M5.365 2.372A2.058 2.058 0 003.317 4.37v7.13a2.058 2.058 0 002.006 2.108h5.376a2.08 2.08 0 001.986-2.104V5.591l-3.09-3.219h-4.23zm.008 12.236H5.3a3.057 3.057 0 01-2.983-3.118V4.358a3.065 3.065 0 013.046-2.986H9.808c.136 0 .266.056.36.154l3.377 3.518a.5.5 0 01.14.346v6.11a3.078 3.078 0 01-2.966 3.108H5.373z"/><path fill-rule="evenodd" clip-rule="evenodd" d="M13.181 6.02h-1.836a2.221 2.221 0 01-2.212-2.216v-1.94a.5.5 0 011 0v1.94c0 .67.545 1.215 1.213 1.217h1.835a.5.5 0 010 1zM9.508 10.77h-3.6a.5.5 0 010-1h3.6a.5.5 0 010 1zM8.145 8.269H5.908a.5.5 0 010-1h2.237a.5.5 0 010 1z"/></svg>