<svg xmlns="http://www.w3.org/2000/svg" viewBox="0 0 20 20" id="engine"><path fill-rule="evenodd" clip-rule="evenodd" d="M17.087 14.706l-2.044 1.934a.732.732 0 01-.504.203h-7.87a.745.745 0 01-.704-.506l-.214-.628a1.25 1.25 0 00-1.179-.851.748.748 0 01-.742-.754V9.35c0-.416.333-.754.742-.754.54 0 1.025-.341 1.212-.855l.187-.517a.743.743 0 01.698-.492h5.999c.312 0 .588.196.698.492a2.07 2.07 0 001.939 1.372h1.327c.17 0 .327.057.451.154.158-.098.345-.154.544-.154h.41c.582 0 1.057.481 1.057 1.074v4.116c0 .592-.475 1.073-1.057 1.073h-.41c-.196 0-.383-.055-.54-.152zm-.455-2.453v1.851l-2.094 1.985H6.67s-.098-.279-.217-.628a1.994 1.994 0 00-1.88-1.357V9.35c.85 0 1.613-.537 1.907-1.347l.19-.517h5.999a2.816 2.816 0 002.637 1.864h1.327V11.2h.68V9.67c0-.177.143-.32.315-.32h.41c.172 0 .315.143.315.32v4.116c0 .176-.143.32-.315.32h-.41a.318.318 0 01-.315-.32v-1.532h-.68zM2.908 9.195a.78.78 0 00-.775-.787H1.68a.78.78 0 00-.775.787v4.65a.78.78 0 00.775.787h.452a.78.78 0 00.775-.787v-4.65zm10.585-4.8a.78.78 0 00-.775-.787H6.652a.78.78 0 00-.775.787v.38a.78.78 0 00.775.788h6.066a.78.78 0 00.775-.787v-.381z"/></svg>