<svg xmlns="http://www.w3.org/2000/svg" viewBox="0 0 20 21" id="keys"><path d="M5.764 13.933l.27.604c.075.168.214.3.386.365l.477.174-.145.397a.774.774 0 00.447 1l.388.148-.174.475a.696.696 0 00.014.533l.23.522c.07.16.2.285.364.348l1.477.565a.585.585 0 00.734-.348l.567-1.477a.66.66 0 00-.014-.501l-1.872-4.21c.104-.127.2-.258.287-.396a.435.435 0 10-.738-.461 3.002 3.002 0 01-.375.484.435.435 0 00-.084.478l1.956 4.37-.434 1.128-1.127-.431-.164-.366.277-.722a.534.534 0 00-.308-.696l-.612-.235.236-.591a.534.534 0 00-.308-.696l-.722-.278-.348-.794a.43.43 0 00-.412-.257 2.99 2.99 0 01-2.765-4.348.437.437 0 10-.78-.395 3.859 3.859 0 003.272 5.61z"/><path d="M5.818 10.074a4.38 4.38 0 004.634.099l.67.438a.726.726 0 00.534.108h.017l.637-.132.111.532a.825.825 0 00.976.639l.533-.112.13.632c.04.19.153.357.315.465l.541.348a.685.685 0 00.517.099l1.784-.362a.607.607 0 00.47-.719l-.371-1.783a.685.685 0 00-.298-.435l-4.465-2.927a4.374 4.374 0 10-6.735 3.11zm-.536-5.579a3.503 3.503 0 016.37 2.591c-.034.173.04.35.188.447l4.64 3.045.303 1.45-1.45.302-.43-.282-.187-.896a.549.549 0 00-.656-.426l-.802.174-.174-.802a.548.548 0 00-.649-.425l-.885.18-.858-.563a.435.435 0 00-.486 0 3.504 3.504 0 01-4.924-4.8v.005z"/><path d="M6.531 6.932a1.344 1.344 0 001.021.193 1.353 1.353 0 10-1.018-.193h-.003zm.338-1.392a.48.48 0 01.405-.22.484.484 0 01.404.75.483.483 0 01-.81-.522V5.54z"/></svg>