<svg xmlns="http://www.w3.org/2000/svg" viewBox="0 0 16 17" id="sale-type"><path fill-rule="evenodd" clip-rule="evenodd" d="M4.104 2.575a6.984 6.984 0 013.88-1.177.487.487 0 010 .974 6.01 6.01 0 106.01 6.01.487.487 0 11.974 0A6.983 6.983 0 114.104 2.575z"/><path d="M8.439 11.07v.715a.435.435 0 11-.871 0v-.734a2.2 2.2 0 01-1.442-.903.455.455 0 01-.098-.273.416.416 0 01.436-.415.377.377 0 01.292.136c.208.272.49.477.812.591v-1.65c-.864-.338-1.3-.844-1.3-1.5a1.475 1.475 0 011.3-1.41v-.715a.435.435 0 01.87 0v.708a1.819 1.819 0 011.209.754.442.442 0 01.104.26.415.415 0 01-.584.39.404.404 0 01-.137-.104 1.377 1.377 0 00-.59-.43v1.462l.162.065c.825.325 1.338.793 1.338 1.534a1.56 1.56 0 01-1.5 1.52h-.001zm-.871-3.494v-1.06a.533.533 0 00-.35.514.591.591 0 00.35.546zM8.991 9.57c0-.312-.215-.5-.552-.65v1.3a.65.65 0 00.552-.65z"/><path fill-rule="evenodd" clip-rule="evenodd" d="M14.825 1.508a.487.487 0 010 .69l-3.677 3.676a.487.487 0 01-.69-.688l3.678-3.678a.487.487 0 01.689 0z"/><path fill-rule="evenodd" clip-rule="evenodd" d="M11.05 1.852a.487.487 0 01.487-.487h2.943a.487.487 0 01.488.487v2.943a.487.487 0 11-.975 0V2.34h-2.456a.487.487 0 01-.487-.488z"/></svg>