<svg xmlns="http://www.w3.org/2000/svg" viewBox="0 0 16 16" id="warning"><path d="M8 10.718a.762.762 0 00-.754.754c0 .41.344.753.754.753.395 0 .754-.343.735-.735A.736.736 0 008 10.718z"/><path d="M14.976 13.39c.474-.818.477-1.792.006-2.606l-4.72-8.176a2.565 2.565 0 00-2.26-1.312c-.946 0-1.79.492-2.257 1.309L1.017 10.79a2.594 2.594 0 00.01 2.62 2.58 2.58 0 002.251 1.294h9.431c.944 0 1.791-.492 2.268-1.315zm-1.025-.592c-.262.453-.726.72-1.245.72h-9.43c-.513 0-.974-.261-1.23-.705a1.427 1.427 0 01-.004-1.438L6.77 3.193a1.4 1.4 0 011.233-.715c.515 0 .977.268 1.233.718l4.724 8.182c.254.44.25.971-.009 1.42z"/><path d="M7.813 5.427c-.359.102-.582.428-.582.823.018.238.033.48.051.717l.154 2.705c.018.307.256.53.564.53a.564.564 0 00.564-.548c0-.187 0-.36.018-.55.033-.581.07-1.163.102-1.745.019-.377.052-.753.07-1.13a.93.93 0 00-.07-.377.756.756 0 00-.87-.425z"/></svg>